<svg width="256" height="256" viewBox="0 0 256 256" fill="none" xmlns="http://www.w3.org/2000/svg" role="img" aria-label="ResonaLoop AI icon">
  <defs>
    <linearGradient id="loopGrad" x1="42" y1="48" x2="214" y2="214" gradientUnits="userSpaceOnUse">
      <stop stop-color="#0E3B2E"/>
      <stop offset="0.55" stop-color="#128A62"/>
      <stop offset="1" stop-color="#6ACAA6"/>
    </linearGradient>
    <linearGradient id="leafGrad" x1="80" y1="148" x2="169" y2="84" gradientUnits="userSpaceOnUse">
      <stop stop-color="#0E3B2E"/>
      <stop offset="1" stop-color="#2CCB8E"/>
    </linearGradient>
  </defs>
  <path d="M205 82C188.5 49.5 153.6 30.1 116.5 35.8C70.6 42.8 39 85.7 46 131.6C53 177.5 95.9 209.1 141.8 202.1C171.7 197.5 196.1 177.5 207 151.2" stroke="url(#loopGrad)" stroke-width="22" stroke-linecap="round"/>
  <path d="M60 173C101 176 139 159 163 124" stroke="url(#loopGrad)" stroke-width="15" stroke-linecap="round"/>
  <path d="M126 167V96" stroke="#0E3B2E" stroke-width="10" stroke-linecap="round"/>
  <path d="M126 131C105 106 78 106 67 116C78 150 104 159 126 131Z" fill="url(#leafGrad)"/>
  <path d="M127 124C148 91 176 83 190 92C180 130 152 143 127 124Z" fill="url(#leafGrad)"/>
  <path d="M172 59H205M205 59H220" stroke="#6ACAA6" stroke-width="5" stroke-linecap="round"/>
  <path d="M181 78H211" stroke="#6ACAA6" stroke-width="5" stroke-linecap="round"/>
  <path d="M167 59L181 78" stroke="#6ACAA6" stroke-width="5" stroke-linecap="round"/>
  <circle cx="225" cy="59" r="8" fill="#128A62"/>
  <circle cx="216" cy="78" r="7" fill="#128A62"/>
  <circle cx="170" cy="59" r="6" fill="#6ACAA6"/>
</svg>
